<mxfile host="app.diagrams.net" modified="2023-03-13T03:26:14.806Z" agent="5.0 (Windows NT 10.0; Win64; x64) AppleWebKit/537.36 (KHTML, like Gecko) Chrome/110.0.0.0 Safari/537.36" etag="2v7yvhjLdKi9wdeWEwhH" version="20.8.20" type="github">
  <diagram id="C5RBs43oDa-KdzZeNtuy" name="Page-1">
    <mxGraphModel dx="2251" dy="719" grid="1" gridSize="10" guides="1" tooltips="1" connect="1" arrows="1" fold="1" page="1" pageScale="1" pageWidth="827" pageHeight="1169" math="0" shadow="0">
      <root>
        <mxCell id="WIyWlLk6GJQsqaUBKTNV-0" />
        <mxCell id="WIyWlLk6GJQsqaUBKTNV-1" parent="WIyWlLk6GJQsqaUBKTNV-0" />
        <mxCell id="WIyWlLk6GJQsqaUBKTNV-2" value="" style="rounded=0;html=1;jettySize=auto;orthogonalLoop=1;fontSize=11;endArrow=block;endFill=0;endSize=8;strokeWidth=1;shadow=0;labelBackgroundColor=none;edgeStyle=orthogonalEdgeStyle;entryX=0.5;entryY=0;entryDx=0;entryDy=0;exitX=0.5;exitY=1;exitDx=0;exitDy=0;" parent="WIyWlLk6GJQsqaUBKTNV-1" source="WIyWlLk6GJQsqaUBKTNV-3" target="6dTbvZDN9qFpxae4WJXI-0" edge="1">
          <mxGeometry relative="1" as="geometry">
            <mxPoint x="220" y="170" as="targetPoint" />
          </mxGeometry>
        </mxCell>
        <mxCell id="WIyWlLk6GJQsqaUBKTNV-3" value="历史和背景：&lt;br&gt;ATE数据，可靠性应力类型，失效模式，测试样品数量，失效样品的数量，失效批次的数量，失效历史" style="rounded=1;whiteSpace=wrap;html=1;fontSize=12;glass=0;strokeWidth=1;shadow=0;align=left;" parent="WIyWlLk6GJQsqaUBKTNV-1" vertex="1">
          <mxGeometry x="120" y="40" width="200" height="80" as="geometry" />
        </mxCell>
        <mxCell id="6dTbvZDN9qFpxae4WJXI-0" value="来料检查：&lt;br&gt;外观检查，X射线检查，超声检查，红外检查" style="rounded=1;whiteSpace=wrap;html=1;fontSize=12;glass=0;strokeWidth=1;shadow=0;align=left;" vertex="1" parent="WIyWlLk6GJQsqaUBKTNV-1">
          <mxGeometry x="120" y="160" width="200" height="80" as="geometry" />
        </mxCell>
        <mxCell id="6dTbvZDN9qFpxae4WJXI-2" value="电性测试：&lt;br&gt;伏安曲线" style="rounded=1;whiteSpace=wrap;html=1;fontSize=12;glass=0;strokeWidth=1;shadow=0;align=left;" vertex="1" parent="WIyWlLk6GJQsqaUBKTNV-1">
          <mxGeometry x="120" y="280" width="200" height="60" as="geometry" />
        </mxCell>
        <mxCell id="6dTbvZDN9qFpxae4WJXI-5" value="" style="rounded=0;html=1;jettySize=auto;orthogonalLoop=1;fontSize=11;endArrow=block;endFill=0;endSize=8;strokeWidth=1;shadow=0;labelBackgroundColor=none;edgeStyle=orthogonalEdgeStyle;entryX=0.5;entryY=0;entryDx=0;entryDy=0;exitX=0.5;exitY=1;exitDx=0;exitDy=0;" edge="1" parent="WIyWlLk6GJQsqaUBKTNV-1" source="6dTbvZDN9qFpxae4WJXI-0" target="6dTbvZDN9qFpxae4WJXI-2">
          <mxGeometry relative="1" as="geometry">
            <mxPoint x="230" y="130" as="sourcePoint" />
            <mxPoint x="230" y="170" as="targetPoint" />
            <Array as="points">
              <mxPoint x="220" y="260" />
              <mxPoint x="220" y="260" />
            </Array>
          </mxGeometry>
        </mxCell>
        <mxCell id="6dTbvZDN9qFpxae4WJXI-6" value="" style="rhombus;whiteSpace=wrap;html=1;shadow=0;fontFamily=Helvetica;fontSize=12;align=left;strokeWidth=1;spacing=6;spacingTop=-4;" vertex="1" parent="WIyWlLk6GJQsqaUBKTNV-1">
          <mxGeometry x="120" y="380" width="200" height="80" as="geometry" />
        </mxCell>
        <mxCell id="6dTbvZDN9qFpxae4WJXI-7" value="" style="rounded=0;html=1;jettySize=auto;orthogonalLoop=1;fontSize=11;endArrow=block;endFill=0;endSize=8;strokeWidth=1;shadow=0;labelBackgroundColor=none;edgeStyle=orthogonalEdgeStyle;entryX=0.5;entryY=0;entryDx=0;entryDy=0;exitX=0.5;exitY=1;exitDx=0;exitDy=0;" edge="1" parent="WIyWlLk6GJQsqaUBKTNV-1" source="6dTbvZDN9qFpxae4WJXI-2" target="6dTbvZDN9qFpxae4WJXI-6">
          <mxGeometry y="20" relative="1" as="geometry">
            <mxPoint as="offset" />
            <mxPoint x="390" y="595" as="sourcePoint" />
            <mxPoint x="390" y="635" as="targetPoint" />
          </mxGeometry>
        </mxCell>
        <mxCell id="6dTbvZDN9qFpxae4WJXI-9" value="No" style="rounded=0;html=1;jettySize=auto;orthogonalLoop=1;fontSize=11;endArrow=block;endFill=0;endSize=8;strokeWidth=1;shadow=0;labelBackgroundColor=none;edgeStyle=orthogonalEdgeStyle;exitX=0.5;exitY=1;exitDx=0;exitDy=0;entryX=0.5;entryY=0;entryDx=0;entryDy=0;" edge="1" parent="WIyWlLk6GJQsqaUBKTNV-1" source="6dTbvZDN9qFpxae4WJXI-6" target="6dTbvZDN9qFpxae4WJXI-10">
          <mxGeometry y="20" relative="1" as="geometry">
            <mxPoint as="offset" />
            <mxPoint x="390" y="735" as="sourcePoint" />
            <mxPoint x="220" y="500" as="targetPoint" />
            <Array as="points" />
          </mxGeometry>
        </mxCell>
        <mxCell id="6dTbvZDN9qFpxae4WJXI-13" value="Short" style="edgeStyle=orthogonalEdgeStyle;shape=connector;rounded=0;orthogonalLoop=1;jettySize=auto;html=1;exitX=1;exitY=0.5;exitDx=0;exitDy=0;entryX=0;entryY=0.5;entryDx=0;entryDy=0;shadow=0;labelBackgroundColor=none;strokeColor=default;strokeWidth=1;fontFamily=Helvetica;fontSize=11;fontColor=default;endArrow=block;endFill=0;endSize=8;" edge="1" parent="WIyWlLk6GJQsqaUBKTNV-1" source="6dTbvZDN9qFpxae4WJXI-10" target="6dTbvZDN9qFpxae4WJXI-11">
          <mxGeometry x="-0.3333" y="10" relative="1" as="geometry">
            <mxPoint as="offset" />
          </mxGeometry>
        </mxCell>
        <mxCell id="6dTbvZDN9qFpxae4WJXI-15" value="Functional" style="edgeStyle=orthogonalEdgeStyle;shape=connector;rounded=0;orthogonalLoop=1;jettySize=auto;html=1;exitX=0;exitY=0.5;exitDx=0;exitDy=0;entryX=1;entryY=0.5;entryDx=0;entryDy=0;shadow=0;labelBackgroundColor=none;strokeColor=default;strokeWidth=1;fontFamily=Helvetica;fontSize=11;fontColor=default;endArrow=block;endFill=0;endSize=8;" edge="1" parent="WIyWlLk6GJQsqaUBKTNV-1" source="6dTbvZDN9qFpxae4WJXI-10" target="6dTbvZDN9qFpxae4WJXI-14">
          <mxGeometry y="-10" relative="1" as="geometry">
            <mxPoint as="offset" />
          </mxGeometry>
        </mxCell>
        <mxCell id="6dTbvZDN9qFpxae4WJXI-17" value="Open" style="edgeStyle=orthogonalEdgeStyle;shape=connector;rounded=0;orthogonalLoop=1;jettySize=auto;html=1;exitX=0.5;exitY=1;exitDx=0;exitDy=0;entryX=0.5;entryY=0;entryDx=0;entryDy=0;shadow=0;labelBackgroundColor=none;strokeColor=default;strokeWidth=1;fontFamily=Helvetica;fontSize=11;fontColor=default;endArrow=block;endFill=0;endSize=8;" edge="1" parent="WIyWlLk6GJQsqaUBKTNV-1" source="6dTbvZDN9qFpxae4WJXI-10" target="6dTbvZDN9qFpxae4WJXI-16">
          <mxGeometry y="20" relative="1" as="geometry">
            <mxPoint as="offset" />
          </mxGeometry>
        </mxCell>
        <mxCell id="6dTbvZDN9qFpxae4WJXI-10" value="失效模式？" style="rhombus;whiteSpace=wrap;html=1;shadow=0;fontFamily=Helvetica;fontSize=12;align=center;strokeWidth=1;spacing=6;spacingTop=-4;" vertex="1" parent="WIyWlLk6GJQsqaUBKTNV-1">
          <mxGeometry x="160" y="500" width="120" height="60" as="geometry" />
        </mxCell>
        <mxCell id="6dTbvZDN9qFpxae4WJXI-11" value="故障隔离：&lt;br&gt;红外锁相热成像，磁电流成像" style="rounded=1;whiteSpace=wrap;html=1;fontSize=12;glass=0;strokeWidth=1;shadow=0;align=left;" vertex="1" parent="WIyWlLk6GJQsqaUBKTNV-1">
          <mxGeometry x="340" y="500" width="160" height="60" as="geometry" />
        </mxCell>
        <mxCell id="6dTbvZDN9qFpxae4WJXI-14" value="与设计、可靠性、封装、产品工程、测试团队一起找到失效的根本原因" style="rounded=1;whiteSpace=wrap;html=1;fontSize=12;glass=0;strokeWidth=1;shadow=0;align=left;" vertex="1" parent="WIyWlLk6GJQsqaUBKTNV-1">
          <mxGeometry x="-80" y="490" width="160" height="80" as="geometry" />
        </mxCell>
        <mxCell id="6dTbvZDN9qFpxae4WJXI-19" style="edgeStyle=orthogonalEdgeStyle;shape=connector;rounded=0;orthogonalLoop=1;jettySize=auto;html=1;exitX=0.5;exitY=1;exitDx=0;exitDy=0;entryX=0.5;entryY=0;entryDx=0;entryDy=0;shadow=0;labelBackgroundColor=none;strokeColor=default;strokeWidth=1;fontFamily=Helvetica;fontSize=11;fontColor=default;endArrow=block;endFill=0;endSize=8;" edge="1" parent="WIyWlLk6GJQsqaUBKTNV-1" source="6dTbvZDN9qFpxae4WJXI-16" target="6dTbvZDN9qFpxae4WJXI-18">
          <mxGeometry relative="1" as="geometry" />
        </mxCell>
        <mxCell id="6dTbvZDN9qFpxae4WJXI-16" value="故障隔离：&lt;br&gt;TDR，EOTPR" style="rounded=1;whiteSpace=wrap;html=1;fontSize=12;glass=0;strokeWidth=1;shadow=0;align=left;" vertex="1" parent="WIyWlLk6GJQsqaUBKTNV-1">
          <mxGeometry x="120" y="600" width="200" height="60" as="geometry" />
        </mxCell>
        <mxCell id="6dTbvZDN9qFpxae4WJXI-22" style="edgeStyle=orthogonalEdgeStyle;shape=connector;rounded=0;orthogonalLoop=1;jettySize=auto;html=1;exitX=0.5;exitY=1;exitDx=0;exitDy=0;entryX=0.5;entryY=0;entryDx=0;entryDy=0;shadow=0;labelBackgroundColor=none;strokeColor=default;strokeWidth=1;fontFamily=Helvetica;fontSize=11;fontColor=default;endArrow=block;endFill=0;endSize=8;" edge="1" parent="WIyWlLk6GJQsqaUBKTNV-1" source="6dTbvZDN9qFpxae4WJXI-18" target="6dTbvZDN9qFpxae4WJXI-20">
          <mxGeometry relative="1" as="geometry" />
        </mxCell>
        <mxCell id="6dTbvZDN9qFpxae4WJXI-18" value="物性/破坏性分析和材料分析找出缺陷来源" style="rounded=1;whiteSpace=wrap;html=1;fontSize=12;glass=0;strokeWidth=1;shadow=0;align=left;" vertex="1" parent="WIyWlLk6GJQsqaUBKTNV-1">
          <mxGeometry x="120" y="700" width="200" height="60" as="geometry" />
        </mxCell>
        <mxCell id="6dTbvZDN9qFpxae4WJXI-20" value="问题分析报告" style="rounded=1;whiteSpace=wrap;html=1;fontSize=12;glass=0;strokeWidth=1;shadow=0;align=center;" vertex="1" parent="WIyWlLk6GJQsqaUBKTNV-1">
          <mxGeometry x="120" y="800" width="200" height="40" as="geometry" />
        </mxCell>
        <mxCell id="6dTbvZDN9qFpxae4WJXI-23" value="&lt;span style=&quot;color: rgb(0, 0, 0); font-family: Helvetica; font-size: 12px; font-style: normal; font-variant-ligatures: normal; font-variant-caps: normal; font-weight: 400; letter-spacing: normal; orphans: 2; text-align: left; text-indent: 0px; text-transform: none; widows: 2; word-spacing: 0px; -webkit-text-stroke-width: 0px; background-color: rgb(251, 251, 251); text-decoration-thickness: initial; text-decoration-style: initial; text-decoration-color: initial; float: none; display: inline !important;&quot;&gt;来料检查发现的缺陷是否与电性失效相关&lt;/span&gt;" style="text;whiteSpace=wrap;html=1;fontSize=11;fontFamily=Helvetica;fontColor=default;" vertex="1" parent="WIyWlLk6GJQsqaUBKTNV-1">
          <mxGeometry x="160" y="400" width="120" height="40" as="geometry" />
        </mxCell>
      </root>
    </mxGraphModel>
  </diagram>
</mxfile>
